<svg width="60" height="60" viewBox="0 0 60 60" fill="none" xmlns="http://www.w3.org/2000/svg"><g clip-path="url(#a)" fill="#fff"><path d="M8.802 51.198c11.704 11.728 30.702 11.737 42.417.02 11.716-11.715 11.707-30.712-.02-42.417C39.495-2.926 20.497-2.935 8.78 8.781-2.935 20.496-2.926 39.494 8.8 51.198M2.157 31.057h7.145a20.65 20.65 0 0 0 5.323 12.824l-5.052 5.051a27.76 27.76 0 0 1-7.416-17.875M16.12 45.376a20.65 20.65 0 0 0 12.823 5.321v7.146c-6.655-.248-13-2.88-17.875-7.417zm14.937 5.321a20.65 20.65 0 0 0 12.89-5.38l5.05 5.05a27.76 27.76 0 0 1-17.94 7.477zm14.377-6.882a20.64 20.64 0 0 0 5.264-12.758h7.145a27.76 27.76 0 0 1-7.357 17.81zm5.264-14.872a20.64 20.64 0 0 0-5.323-12.824l5.052-5.051a27.76 27.76 0 0 1 7.417 17.875zM43.88 14.625a20.65 20.65 0 0 0-12.824-5.323V2.156c6.655.248 13 2.88 17.876 7.417zM28.943 9.302a20.64 20.64 0 0 0-12.758 5.264l-5.052-5.053a27.76 27.76 0 0 1 17.81-7.357zM30 11.39c10.262-.001 18.611 8.348 18.611 18.61s-8.349 18.61-18.61 18.61c-10.263 0-18.612-8.347-18.612-18.61S19.739 11.39 30 11.39m-20.366-.387 5.05 5.05a20.64 20.64 0 0 0-5.381 12.89H2.157a27.76 27.76 0 0 1 7.477-17.94"/><path d="M34.043 22.253c.877 0 1.588-.699 1.588-1.56 0-.863-.71-1.562-1.588-1.562-.877 0-1.588.699-1.588 1.561s.711 1.561 1.588 1.561"/><path d="M35.624 26.826c0-3.311-2.723-6.001-6.073-6.001s-6.073 2.683-6.073 6 2.723 6.002 6.073 6.002 6.073-2.684 6.073-6.001m-10.238.02c0-2.293 1.88-4.154 4.207-4.154s4.206 1.861 4.206 4.154-1.88 4.155-4.206 4.155-4.207-1.861-4.207-4.155"/><path d="M31.487 32.646c-2.298 0-4.164 1.84-4.164 4.112s1.866 4.112 4.164 4.112c2.299 0 4.165-1.84 4.165-4.112s-1.867-4.113-4.165-4.113m.028 6.51c-1.337 0-2.424-1.074-2.424-2.391 0-1.318 1.087-2.391 2.424-2.391s2.424 1.073 2.424 2.39-1.087 2.391-2.424 2.391"/></g><defs><clipPath id="a"><path fill="#fff" d="M0 0h60v60H0z"/></clipPath></defs></svg>