<svg width="149" height="42" viewBox="0 0 149 42" fill="none" xmlns="http://www.w3.org/2000/svg"><g clip-path="url(#a)" fill="#fff"><path d="M35.861 4.55c-1.878 0-4.107 1.024-5.283 2.99-.108.175-.378.094-.378-.108V4.955a.207.207 0 0 0-.203-.202h-3.31a.207.207 0 0 0-.203.202v20.077c0 .108.094.202.203.202h3.31a.207.207 0 0 0 .203-.202v-9.95c0-3.421 1.837-6.895 5.324-6.895.743 0 1.283.094 1.905.323l.121.04V4.726h-.067c-.54-.135-1.04-.175-1.622-.175m80.345-.201c-2.851 0-5.311 1.44-6.54 3.81a.205.205 0 0 1-.365 0c-1.162-2.423-3.378-3.81-6.148-3.81-2.351 0-4.432 1.023-5.756 2.76-.122.148-.365.067-.365-.121V4.956a.207.207 0 0 0-.203-.202h-3.31a.207.207 0 0 0-.203.202v20.077c0 .108.094.202.203.202h3.31a.207.207 0 0 0 .203-.202v-9.951c0-4.39 2.243-7.339 5.58-7.339 2.46 0 3.932 2.047 3.932 5.467v11.823c0 .108.095.202.203.202h3.311a.207.207 0 0 0 .202-.202v-9.951c0-4.457 2.176-7.339 5.54-7.339 2.487 0 3.973 2.047 3.973 5.467v11.823c0 .108.095.202.203.202h3.31a.21.21 0 0 0 .203-.202V12.685c0-5.063-2.851-8.335-7.283-8.335M85.885 6.033c1.701 0 3.08-1.35 3.08-3.017S87.586 0 85.885 0s-3.081 1.35-3.081 3.016 1.379 3.017 3.08 3.017"/><path d="M88.951 14.866c0-6.397-5.283-11.595-11.782-11.595-6.5 0-11.783 5.185-11.783 11.595S70.669 26.46 77.168 26.46c6.5 0 11.783-5.185 11.783-11.594m-19.863.04c0-4.43 3.648-8.026 8.162-8.026 4.513 0 8.16 3.596 8.16 8.026s-3.647 8.026-8.16 8.026c-4.514 0-8.162-3.596-8.162-8.026"/><path d="M80.925 26.11c-4.459 0-8.08 3.554-8.08 7.944S76.466 42 80.925 42c4.46 0 8.08-3.555 8.08-7.945s-3.62-7.945-8.08-7.945m.054 12.577c-2.594 0-4.702-2.074-4.702-4.62 0-2.544 2.108-4.618 4.702-4.618s4.702 2.074 4.702 4.619-2.108 4.619-4.702 4.619M10.986 3.973a11.06 11.06 0 0 0-7.527 2.935V4H0v28.817h3.473V22.65a11.06 11.06 0 0 0 7.526 2.935c6.067 0 10.986-4.834 10.986-10.8 0-5.965-4.919-10.812-11-10.812m.08 18.327c-4.202 0-7.607-3.353-7.607-7.474 0-4.12 3.405-7.473 7.608-7.473s7.607 3.353 7.607 7.473-3.405 7.474-7.607 7.474m50.091-7.959V3.973h-3.46v3.003a11.06 11.06 0 0 0-7.526-2.936c-6.066 0-10.985 4.834-10.985 10.8 0 5.965 4.919 10.8 10.986 10.8 2.918 0 5.553-1.118 7.526-2.936v2.895h3.459V14.314zM50.104 22.3c-4.202 0-7.608-3.353-7.608-7.474 0-4.12 3.406-7.473 7.608-7.473s7.607 3.353 7.607 7.473-3.405 7.474-7.607 7.474M149 14.853V3.973h-3.459v3.003a11.06 11.06 0 0 0-7.527-2.936c-6.067 0-10.985 4.834-10.985 10.8 0 5.965 4.918 10.8 10.985 10.8 2.919 0 5.554-1.118 7.527-2.936v2.895H149V14.826zM137.933 22.3c-4.202 0-7.607-3.353-7.607-7.474 0-4.12 3.405-7.473 7.607-7.473 4.203 0 7.608 3.353 7.608 7.473s-3.405 7.474-7.608 7.474"/></g><defs><clipPath id="a"><path fill="#fff" d="M0 0h149v42H0z"/></clipPath></defs></svg>